<?xml version="1.0" standalone="no"?>
<!DOCTYPE svg PUBLIC "-//W3C//DTD SVG 20010904//EN"
 "http://www.w3.org/TR/2001/REC-SVG-20010904/DTD/svg10.dtd">
<svg version="1.0" xmlns="http://www.w3.org/2000/svg"
 width="633.000000pt" height="120.000000pt" viewBox="0 0 633.000000 120.000000"
 preserveAspectRatio="xMidYMid meet">

<g transform="translate(0.000000,120.000000) scale(0.100000,-0.100000)"
fill="#000000" stroke="none">
<path d="M0 700 l0 -500 400 0 c335 0 406 2 430 15 15 8 52 42 81 75 39 45 57
59 71 54 17 -5 18 12 18 425 l0 431 -500 0 -500 0 0 -500z m434 120 c27 -60
52 -110 55 -110 3 0 21 31 38 69 18 38 44 83 59 100 22 27 32 31 75 31 49 0
49 0 43 -27 -10 -40 -67 -152 -119 -232 -24 -38 -53 -88 -65 -110 -11 -23 -25
-39 -30 -36 -25 15 -193 324 -205 377 -6 24 -3 28 27 37 69 20 69 20 122 -99z"/>
<path d="M2490 705 l0 -265 25 0 c24 0 25 3 25 53 0 52 2 55 48 94 l48 41 74
-94 c67 -83 79 -93 108 -94 l33 0 -90 111 -89 112 81 78 82 78 -32 1 c-28 0
-49 -15 -138 -97 -58 -54 -110 -99 -116 -101 -5 -2 -9 66 -9 172 l0 176 -25 0
-25 0 0 -265z"/>
<path d="M4610 705 l0 -265 25 0 c22 0 25 4 25 37 l0 37 28 -26 c51 -49 121
-61 190 -33 78 33 112 86 112 175 0 89 -34 142 -112 175 -69 28 -139 16 -190
-33 l-28 -26 0 112 0 112 -25 0 -25 0 0 -265z m231 65 c19 -5 48 -24 65 -41
26 -28 29 -37 29 -99 0 -62 -3 -71 -30 -100 -87 -90 -231 -38 -242 89 -6 63
20 109 77 139 50 25 52 25 101 12z"/>
<path d="M5390 863 c0 -101 -1 -105 -18 -90 -80 73 -220 55 -280 -36 -37 -55
-39 -153 -4 -209 59 -95 195 -115 282 -41 l30 25 0 -36 c0 -29 4 -36 20 -36
19 0 20 7 20 265 l0 265 -25 0 -25 0 0 -107z m-99 -93 c19 -5 48 -24 65 -41
26 -28 29 -36 29 -100 0 -68 -1 -72 -36 -103 -48 -44 -96 -53 -154 -27 -36 16
-50 29 -65 63 -25 54 -25 82 0 136 15 33 29 47 62 62 50 23 52 23 99 10z"/>
<path d="M1080 690 l0 -250 25 0 25 0 0 115 0 115 160 0 160 0 0 -115 0 -115
25 0 25 0 0 250 0 250 -25 0 -25 0 0 -115 0 -116 -157 3 -158 3 -3 113 c-3
112 -3 112 -27 112 l-25 0 0 -250z"/>
<path d="M1652 683 c3 -109 7 -145 21 -171 21 -38 83 -71 135 -72 37 0 97 23
124 47 17 15 18 14 18 -15 0 -27 4 -32 25 -32 l25 0 0 190 0 190 -25 0 -25 0
0 -110 c0 -169 -32 -224 -131 -224 -97 0 -119 42 -119 222 l0 112 -26 0 -26 0
4 -137z"/>
<path d="M2180 809 c-60 -24 -90 -81 -71 -132 13 -33 47 -50 144 -71 57 -13
80 -23 88 -38 38 -71 -94 -112 -195 -61 -25 13 -30 13 -44 -1 -15 -14 -14 -17
3 -30 77 -57 246 -41 280 25 40 76 5 119 -116 145 -111 24 -144 59 -100 103
28 28 87 34 146 17 38 -12 51 -13 57 -3 13 20 3 31 -38 44 -48 14 -120 15
-154 2z"/>
<path d="M2842 808 c3 -7 40 -91 83 -186 81 -182 84 -195 45 -244 -26 -34 -64
-43 -100 -24 -25 12 -31 12 -41 0 -18 -22 9 -44 59 -51 58 -8 98 12 127 61 21
37 205 442 205 452 0 2 -10 4 -23 4 -21 0 -32 -19 -93 -159 -38 -88 -72 -157
-75 -153 -4 4 -36 75 -72 157 -59 136 -68 150 -93 153 -19 3 -25 0 -22 -10z"/>
<path d="M3495 803 c4 -10 33 -88 65 -173 32 -85 61 -163 65 -172 4 -10 18
-18 30 -18 21 0 30 17 82 150 32 82 61 146 65 142 4 -4 31 -70 60 -147 48
-126 57 -140 79 -143 24 -3 28 4 71 120 26 68 58 153 72 191 l26 67 -24 0
c-21 0 -29 -16 -82 -159 -32 -88 -60 -158 -62 -156 -2 2 -29 72 -61 157 -52
138 -61 153 -82 153 -21 0 -29 -15 -81 -154 -32 -85 -60 -156 -61 -157 -2 -2
-29 69 -61 156 -54 148 -61 160 -83 160 -20 0 -24 -4 -18 -17z"/>
<path d="M4245 802 c-48 -23 -69 -45 -90 -95 -34 -82 -5 -187 65 -233 67 -44
179 -42 240 6 23 18 24 20 9 36 -16 15 -19 15 -48 -7 -57 -42 -168 -23 -205
34 -8 12 -18 34 -21 50 l-7 27 161 0 162 0 -7 38 c-11 61 -35 102 -76 130 -52
34 -128 40 -183 14z m116 -32 c38 -11 83 -52 94 -87 l6 -23 -135 0 c-88 0
-136 4 -136 10 0 30 35 73 73 91 49 22 51 22 98 9z"/>
<path d="M5653 801 c-77 -36 -119 -135 -93 -225 31 -113 170 -169 280 -113 47
23 55 34 41 55 -6 10 -16 8 -46 -9 -77 -46 -184 -19 -219 55 -9 19 -16 39 -16
45 0 8 50 11 160 11 l160 0 0 28 c0 34 -31 101 -56 124 -55 48 -141 60 -211
29z m144 -40 c38 -18 73 -61 73 -91 0 -6 -47 -10 -135 -10 -74 0 -135 3 -135
6 0 28 38 76 73 93 51 26 70 26 124 2z"/>
<path d="M5954 804 c4 -9 41 -95 83 -190 71 -161 79 -174 103 -174 24 0 32 13
103 174 100 226 94 206 65 206 -22 0 -32 -17 -96 -162 l-71 -163 -20 45 c-11
25 -42 97 -70 160 -44 102 -53 115 -77 118 -22 3 -26 0 -20 -14z"/>
<path d="M3260 630 c0 -19 7 -20 95 -20 88 0 95 1 95 20 0 19 -7 20 -95 20
-88 0 -95 -1 -95 -20z"/>
<path d="M1204 150 c0 -52 1 -74 3 -47 2 26 2 68 0 95 -2 26 -3 4 -3 -48z"/>
<path d="M1260 150 c0 -53 4 -90 10 -90 6 0 10 37 10 90 0 53 -4 90 -10 90 -6
0 -10 -37 -10 -90z"/>
<path d="M2197 233 c-4 -3 -7 -15 -7 -25 0 -10 -5 -18 -11 -18 -8 0 -8 -4 -1
-13 6 -7 12 -37 15 -67 l3 -55 2 58 c2 50 5 59 25 67 l22 9 -22 0 c-13 1 -23
5 -23 9 0 16 23 30 38 25 10 -4 13 -2 8 5 -8 13 -39 16 -49 5z"/>
<path d="M2717 233 c-4 -3 -7 -15 -7 -25 0 -10 -5 -18 -11 -18 -8 0 -8 -4 -1
-13 6 -7 12 -37 15 -67 l3 -55 2 58 c2 50 5 59 25 67 l22 9 -22 0 c-13 1 -23
5 -23 9 0 16 23 30 38 25 10 -4 13 -2 8 5 -8 13 -39 16 -49 5z"/>
<path d="M2803 233 c-7 -2 -13 -13 -13 -23 0 -10 -6 -21 -12 -23 -10 -4 -10
-6 0 -6 8 -1 12 -20 12 -61 0 -33 4 -60 10 -60 6 0 10 26 10 59 0 48 3 60 18
64 13 4 11 5 -5 6 -13 0 -23 5 -23 9 0 15 22 30 36 25 8 -3 14 0 14 6 0 11
-25 14 -47 4z"/>
<path d="M1066 202 c-36 -69 -64 -142 -55 -142 5 0 14 11 19 25 8 22 16 25 55
25 39 0 47 -4 57 -25 6 -14 15 -25 20 -25 4 0 2 15 -6 33 -8 17 -25 56 -37 85
-13 28 -26 52 -31 52 -4 0 -14 -13 -22 -28z m54 -69 c0 -8 -13 -13 -35 -13
-19 0 -35 2 -35 5 0 2 7 23 17 46 l16 42 18 -34 c10 -19 18 -40 19 -46z"/>
<path d="M1760 206 c0 -8 -6 -17 -12 -19 -10 -4 -10 -6 0 -6 8 -1 12 -18 12
-49 0 -26 5 -53 12 -60 15 -15 48 -16 48 -2 0 6 -8 10 -17 8 -15 -2 -19 6 -21
49 -2 43 0 52 15 56 17 4 17 5 1 6 -10 0 -18 8 -18 16 0 8 -4 15 -10 15 -5 0
-10 -6 -10 -14z"/>
<path d="M2451 208 c0 -10 -6 -18 -12 -18 -8 0 -8 -4 -1 -13 6 -7 12 -35 14
-62 2 -39 7 -51 22 -53 10 -2 23 2 30 9 8 9 7 11 -5 6 -25 -8 -39 12 -39 55 0
31 5 41 23 48 l22 9 -22 0 c-12 1 -24 9 -26 19 -4 16 -5 16 -6 0z"/>
<path d="M1392 181 c-23 -14 -10 -56 18 -59 14 -2 31 -9 38 -15 21 -17 -13
-37 -52 -31 -24 4 -27 3 -16 -5 34 -25 90 -9 90 25 0 19 -8 25 -40 34 -58 16
-48 46 13 42 17 -2 26 2 22 8 -7 12 -55 13 -73 1z"/>
<path d="M1510 170 c-40 -40 -11 -110 45 -110 32 0 65 33 65 65 0 32 -33 65
-65 65 -14 0 -34 -9 -45 -20z m86 -25 c13 -53 -25 -87 -65 -58 -12 8 -21 25
-21 38 0 50 74 67 86 20z"/>
<path d="M1661 125 c2 -67 2 -68 8 -21 5 34 14 53 32 67 19 15 20 19 7 19 -9
0 -20 -5 -24 -11 -4 -8 -9 -7 -15 2 -5 9 -8 -14 -8 -56z"/>
<path d="M1849 174 c-18 -22 -1 -46 39 -56 34 -9 43 -32 17 -42 -8 -3 -26 -1
-40 4 -14 5 -25 6 -25 1 0 -24 72 -28 91 -5 18 22 1 46 -39 56 -33 9 -43 32
-18 41 8 3 24 3 37 0 15 -4 20 -3 15 5 -11 17 -61 15 -77 -4z"/>
<path d="M2040 170 c-40 -40 -11 -110 45 -110 32 0 65 33 65 65 0 32 -33 65
-65 65 -14 0 -34 -9 -45 -20z m86 -25 c13 -53 -25 -87 -65 -58 -12 8 -21 25
-21 38 0 50 74 67 86 20z"/>
<path d="M2332 181 c-23 -14 -10 -56 18 -59 14 -2 31 -9 38 -15 21 -17 -13
-37 -52 -31 -24 4 -27 3 -16 -5 34 -25 90 -9 90 25 0 19 -8 25 -40 34 -58 16
-48 46 13 42 17 -2 26 2 22 8 -7 12 -55 13 -73 1z"/>
<path d="M2540 141 c0 -32 6 -55 16 -65 18 -18 60 -21 70 -5 4 8 9 7 15 -2 5
-9 8 14 7 56 -1 55 -2 60 -5 23 -5 -55 -33 -84 -65 -67 -14 7 -18 21 -18 59 0
28 -4 50 -10 50 -5 0 -10 -22 -10 -49z"/>
</g>
</svg>
